<svg xmlns="http://www.w3.org/2000/svg" viewBox="0 0 500 500">
  <defs>
    <style>
      .up {
        fill: red;
      }

      .down {
        fill: blue;
      }

      .right {
        fill: orange;
      }

      .left {
        fill: yellow;
      }

      .out {
        fill: green;
      }
    </style>
  </defs>
  <title>controls</title>
  <g>
    <path class="up" d="M426.78,73.22,323.36,176.64a103.74,103.74,0,0,0-146.72,0L73.22,73.22a250,250,0,0,1,353.56,0Z"/>
    <path class="down" d="M323.36,323.36,426.78,426.78a250,250,0,0,1-353.56,0L176.64,323.36a103.74,103.74,0,0,0,146.72,0Z"/>
    <path class="right" d="M426.78,73.22a250,250,0,0,1,0,353.56L323.36,323.36a103.74,103.74,0,0,0,0-146.72Z"/>
    <path class="left" d="M176.64,323.36,73.22,426.78a250,250,0,0,1,0-353.56L176.64,176.64a103.74,103.74,0,0,0,0,146.72Z"/>
    <path class="out" d="M323.36,176.64A103.74,103.74,0,1,1,250,146.25,103.39,103.39,0,0,1,323.36,176.64Z"/>
  </g>
</svg>
